<?xml version="1.0" standalone="no"?>
<!DOCTYPE svg PUBLIC "-//W3C//DTD SVG 20010904//EN"
 "http://www.w3.org/TR/2001/REC-SVG-20010904/DTD/svg10.dtd">
<svg version="1.0" xmlns="http://www.w3.org/2000/svg"
 width="974.000000pt" height="974.000000pt" viewBox="0 0 974.000000 974.000000"
 preserveAspectRatio="xMidYMid meet">

<g transform="translate(0.000000,974.000000) scale(0.100000,-0.100000)"
fill="#000000" stroke="none">
<path d="M4265 8432 c-49 -16 -101 -34 -114 -41 -13 -8 -53 -17 -88 -21 -116
-15 -259 -82 -455 -213 -120 -80 -195 -137 -231 -178 -30 -32 -59 -59 -64 -59
-6 0 -13 -7 -16 -15 -4 -8 -30 -28 -59 -45 -29 -17 -60 -36 -69 -43 -17 -13
-109 -142 -109 -152 0 -4 -8 -19 -18 -33 -10 -15 -26 -47 -35 -72 -9 -25 -35
-67 -58 -94 -22 -28 -47 -66 -56 -85 -29 -66 -105 -315 -128 -421 -13 -58 -40
-148 -60 -200 -20 -52 -43 -122 -50 -155 -28 -115 -13 -332 28 -409 19 -36 22
-63 27 -216 3 -98 10 -184 16 -195 6 -11 14 -65 18 -120 3 -55 9 -133 12 -172
6 -65 5 -73 -12 -79 -56 -18 -74 -28 -74 -40 0 -7 -16 -28 -35 -45 l-35 -32 0
-103 c0 -62 8 -144 20 -206 11 -57 20 -117 20 -133 0 -45 26 -160 44 -196 9
-18 16 -40 16 -50 0 -17 6 -36 36 -104 7 -17 25 -64 40 -105 28 -80 68 -150
84 -150 6 0 10 -6 10 -13 0 -24 98 -111 150 -132 38 -16 48 -27 88 -106 23
-45 42 -88 42 -95 0 -6 15 -40 33 -75 18 -35 43 -91 56 -124 32 -83 32 -83
107 -240 104 -219 113 -239 123 -286 12 -57 18 -902 6 -954 -4 -22 -21 -57
-37 -79 -15 -21 -28 -44 -28 -51 0 -18 -114 -126 -158 -151 -20 -11 -62 -33
-92 -49 -48 -25 -298 -168 -370 -211 -24 -15 -49 -27 -270 -131 -150 -71 -170
-80 -260 -116 -47 -19 -150 -62 -230 -94 -80 -33 -193 -77 -252 -98 -59 -20
-105 -41 -102 -46 23 -39 330 -271 531 -403 1405 -921 3179 -1049 4718 -339
368 169 778 430 1079 686 140 120 277 250 269 257 -4 4 -33 16 -63 25 -30 10
-86 35 -125 55 -38 21 -101 49 -140 63 -109 39 -472 204 -570 259 -11 7 -56
30 -100 53 -44 24 -93 50 -110 59 -16 8 -66 30 -110 46 -179 69 -267 114 -319
163 -25 23 -72 65 -105 92 -77 63 -231 216 -231 229 0 5 -6 17 -14 25 -45 52
-143 354 -166 511 -38 262 -37 384 4 590 31 150 35 167 90 340 47 146 77 247
97 323 7 27 18 51 25 54 10 4 57 -19 74 -37 15 -15 85 -40 115 -40 50 0 111
36 145 85 17 24 30 46 30 50 0 4 13 25 28 48 46 67 98 208 132 352 54 232 61
317 40 510 -14 129 -37 188 -101 256 -35 37 -53 48 -89 54 -25 4 -48 12 -52
18 -3 5 3 27 14 49 16 30 19 49 14 91 -3 28 -8 120 -11 202 -3 83 -11 177 -16
210 -6 33 -8 94 -5 135 6 61 3 86 -14 134 -17 50 -19 73 -14 156 6 88 4 105
-24 201 -17 57 -33 120 -37 139 -21 120 -84 268 -136 324 -25 26 -85 124 -135
216 -10 19 -24 42 -31 50 -6 8 -19 35 -29 60 -23 61 -93 164 -151 225 -94 98
-205 196 -237 209 -56 23 -180 122 -199 158 -20 38 -87 81 -182 118 -33 13
-70 31 -83 41 -36 28 -139 57 -223 63 -42 3 -89 11 -105 17 -128 50 -197 58
-654 74 -139 5 -149 4 -235 -23z m555 -1451 c0 -11 -4 -23 -10 -26 -6 -4 -10
5 -10 19 0 14 5 26 10 26 6 0 10 -9 10 -19z m-40 -60 c0 -37 -2 -40 -32 -44
-29 -3 -27 -4 10 -5 32 -2 42 2 42 13 0 13 4 14 21 4 15 -8 24 -8 32 0 17 17
27 13 27 -9 0 -17 -7 -20 -40 -20 -36 0 -40 -2 -40 -25 0 -22 -4 -25 -34 -25
-19 0 -42 -3 -51 -7 -14 -5 -16 -2 -10 16 5 18 1 23 -24 32 -17 6 -28 15 -25
20 3 5 0 9 -5 9 -6 0 -11 -15 -11 -32 l-1 -33 -18 23 c-11 12 -30 22 -45 22
-13 0 -28 5 -31 10 -3 6 -1 10 4 10 6 0 11 9 11 21 0 19 5 21 58 17 51 -3 58
-1 67 20 8 18 18 22 52 22 l43 0 0 -39z m-452 -67 c40 -11 23 -24 -33 -24 -42
0 -55 3 -55 15 0 16 44 20 88 9z m-178 -34 c0 -5 -2 -10 -4 -10 -3 0 -8 5 -11
10 -3 6 -1 10 4 10 6 0 11 -4 11 -10z m434 -35 c-4 -8 -10 -15 -15 -15 -5 0
-9 7 -9 15 0 8 7 15 15 15 9 0 12 -6 9 -15z m151 -55 c3 -5 1 -10 -4 -10 -6 0
-11 5 -11 10 0 6 2 10 4 10 3 0 8 -4 11 -10z m-595 -259 c0 -5 42 -12 93 -14
108 -6 167 -16 167 -28 0 -5 18 -9 40 -9 22 0 40 -4 40 -10 0 -5 -5 -10 -11
-10 -5 0 -8 -4 -5 -9 3 -4 24 -3 47 3 36 9 42 8 55 -9 13 -17 24 -19 82 -16
37 1 73 8 81 14 7 6 28 10 45 9 24 -2 28 0 16 7 -11 8 -2 11 37 11 28 0 53 -4
55 -10 2 -5 16 -3 33 4 42 20 118 36 125 28 14 -19 56 -32 172 -54 58 -11 58
-11 36 -29 -11 -11 -16 -19 -10 -19 6 0 14 5 17 10 3 6 11 10 16 10 6 0 -2
-10 -18 -23 -20 -17 -42 -24 -81 -25 -29 -1 -63 -7 -75 -14 -12 -6 -35 -14
-52 -18 -21 -4 -31 -12 -33 -28 -3 -22 -26 -30 -36 -13 -3 4 -17 6 -30 4 -22
-5 -25 -2 -23 22 3 40 -17 41 -31 1 l-12 -33 -123 -11 c-67 -6 -133 -10 -146
-9 -18 1 -29 -5 -38 -23 -7 -14 -13 -19 -13 -11 0 9 -7 11 -21 8 -11 -3 -34
-1 -50 5 -23 8 -35 7 -54 -6 -33 -22 -48 -20 -60 7 -7 15 -19 22 -40 23 -57 2
-64 4 -79 20 -9 8 -16 12 -16 7 0 -5 -18 -7 -40 -5 -28 3 -40 0 -40 -8 0 -9
-8 -6 -22 6 -12 10 -18 13 -14 7 9 -16 -20 -18 -29 -3 -3 6 -19 10 -35 10 -16
0 -31 4 -34 9 -3 4 -27 14 -53 22 -27 7 -56 22 -65 33 -16 20 -18 20 -45 4
-20 -12 -33 -14 -46 -7 -21 12 -8 28 41 48 25 11 35 11 47 1 12 -10 15 -9 15
8 0 11 6 23 13 25 9 4 9 8 -1 15 -11 7 -6 12 18 21 18 6 36 9 40 6 4 -3 10 2
14 10 3 10 19 15 46 15 29 0 40 4 40 15 0 9 9 15 25 15 14 0 25 -4 25 -9z
m1060 -61 c0 -5 -4 -10 -10 -10 -5 0 -10 5 -10 10 0 6 5 10 10 10 6 0 10 -4
10 -10z m-1393 -472 c15 -6 35 -10 43 -9 12 1 12 0 2 -7 -15 -10 -108 -9 -119
1 -3 4 1 7 10 7 10 0 17 5 17 10 0 13 12 13 47 -2z m893 -158 c0 -11 5 -20 10
-20 17 0 11 -25 -10 -38 -11 -7 -20 -18 -20 -25 0 -6 -9 -23 -20 -37 l-20 -25
0 23 c0 12 -5 22 -11 22 -6 0 -9 10 -7 23 2 12 10 22 18 22 8 0 16 8 18 18 2
9 -1 17 -7 17 -15 0 -14 27 2 33 28 12 47 7 47 -13z m-810 -50 c0 -5 -7 -10
-15 -10 -8 0 -15 5 -15 10 0 6 7 10 15 10 8 0 15 -4 15 -10z m1474 -16 c10
-26 7 -34 -13 -34 -23 0 -35 15 -27 35 7 20 32 19 40 -1z m-1314 -35 c0 -5 -7
-9 -15 -9 -15 0 -20 12 -9 23 8 8 24 -1 24 -14z m590 -234 c0 -14 7 -28 15
-31 20 -8 19 -28 -1 -49 -14 -14 -15 -18 -2 -33 23 -26 30 -53 18 -68 -9 -9
-4 -18 19 -35 22 -16 27 -25 19 -30 -9 -6 -6 -17 12 -41 32 -43 41 -55 63 -79
11 -12 17 -35 17 -64 0 -42 -6 -51 -33 -46 -5 1 -6 -2 -4 -6 3 -5 -6 -16 -19
-26 -13 -10 -24 -14 -24 -9 0 4 -27 6 -59 4 -69 -5 -168 21 -189 50 -7 10 -23
18 -35 18 -35 0 -67 11 -67 24 0 6 7 24 15 40 8 15 15 35 15 43 0 16 25 45 33
37 2 -3 14 6 25 20 10 14 22 23 25 20 3 -3 8 -1 12 5 3 6 0 11 -7 11 -7 1 -2
7 12 15 14 7 37 11 51 8 31 -6 46 19 24 37 -8 7 -12 16 -9 21 3 5 -2 6 -12 2
-14 -5 -15 -1 -9 28 12 60 15 66 40 77 28 13 33 40 9 49 -15 6 -15 8 2 20 28
20 44 16 44 -12z m-1001 -134 c46 -5 87 -15 91 -21 5 -9 25 -11 59 -8 49 5 51
4 51 -20 0 -23 2 -24 37 -17 21 4 50 13 65 21 15 8 41 14 59 14 31 0 32 0 14
-20 -21 -23 -21 -23 44 -9 37 8 55 7 72 -1 21 -12 21 -13 -22 -51 -24 -21 -59
-42 -76 -45 -19 -4 -33 -12 -33 -20 0 -8 -9 -14 -19 -14 -11 0 -22 -4 -26 -9
-3 -5 -19 -12 -35 -16 -16 -4 -39 -18 -50 -32 -15 -20 -25 -24 -45 -19 -22 6
-25 3 -25 -19 0 -20 -8 -28 -40 -41 -22 -9 -40 -22 -40 -29 0 -19 -50 -48 -90
-51 -19 -2 -38 -3 -42 -3 -5 -1 -8 -9 -8 -19 0 -26 -36 -57 -69 -59 -14 -1
-44 -4 -66 -6 -57 -6 -85 7 -85 38 0 14 5 25 11 25 5 0 7 4 4 10 -10 17 -32
-12 -27 -37 3 -16 0 -23 -11 -23 -27 0 -28 18 -2 56 31 45 33 74 5 74 -11 0
-20 3 -20 8 0 18 41 72 55 72 9 0 13 5 10 11 -4 6 -13 8 -21 5 -24 -9 -16 27
11 49 29 24 46 95 22 95 -15 0 -59 79 -50 93 2 4 24 7 48 7 26 0 45 5 48 13 6
15 53 15 196 -2z m2221 -11 c0 -5 10 -20 22 -32 l21 -21 -28 -22 c-19 -16 -23
-24 -14 -28 10 -4 9 -6 -3 -6 -13 -1 -18 7 -18 24 0 15 -6 25 -14 25 -13 0
-29 48 -19 62 6 12 53 10 53 -2z m-586 -56 c9 -8 16 -11 16 -5 0 6 14 11 30
11 17 0 30 -5 30 -11 0 -6 11 -8 28 -4 21 4 36 0 57 -16 25 -21 38 -23 133
-21 65 2 109 7 113 13 4 7 12 8 19 4 8 -5 7 -12 -5 -25 -21 -23 -12 -40 20
-40 13 0 30 -6 37 -13 10 -11 15 -12 25 -1 15 15 17 44 3 44 -5 0 -10 5 -10
10 0 6 14 10 30 10 17 0 30 -4 30 -10 0 -5 -4 -10 -10 -10 -5 0 -10 -9 -10
-20 0 -11 5 -20 10 -20 18 0 11 -20 -7 -21 -12 0 -13 -2 -5 -6 7 -3 19 0 26 6
8 7 25 9 40 5 22 -5 23 -8 13 -25 -9 -15 -9 -23 0 -38 10 -16 9 -22 -3 -32 -9
-7 -13 -21 -11 -30 3 -10 -1 -23 -9 -30 -8 -6 -14 -18 -14 -26 0 -8 -12 -25
-27 -39 l-27 -25 -22 26 c-18 21 -27 25 -41 17 -14 -8 -27 -2 -65 34 -26 24
-54 44 -63 44 -8 0 -21 11 -27 25 -6 14 -15 25 -19 25 -5 0 -35 18 -66 40 -32
22 -62 40 -68 40 -22 0 -145 66 -145 78 0 6 -11 12 -25 12 -18 0 -25 5 -25 20
0 24 22 26 44 4z m-1032 -192 c2 -4 18 -18 36 -31 36 -25 39 -39 17 -80 -20
-41 -82 -56 -124 -30 -45 27 -53 49 -33 91 9 19 26 40 37 45 25 13 62 16 67 5z
m912 -34 c10 -38 7 -58 -8 -58 -8 0 -16 -4 -18 -9 -5 -15 -93 -18 -92 -3 1 6
2 21 3 32 0 11 8 20 16 20 8 0 19 9 25 20 16 29 66 27 74 -2z m-796 -25 c-5
-26 -38 -29 -38 -4 0 15 6 21 21 21 14 0 19 -5 17 -17z m-1601 -310 c-3 -10
-5 -4 -5 12 0 17 2 24 5 18 2 -7 2 -21 0 -30z m3 -44 c0 -6 -4 -7 -10 -4 -5 3
-10 11 -10 16 0 6 5 7 10 4 6 -3 10 -11 10 -16z m1940 -163 c0 -11 -19 -15
-25 -6 -3 5 1 10 9 10 9 0 16 -2 16 -4z m307 -208 c18 -13 33 -26 33 -30 0
-18 29 -6 44 17 12 18 25 25 47 25 26 0 32 -6 50 -47 11 -26 22 -50 25 -52 3
-3 16 8 29 24 l24 30 14 -35 c20 -47 26 -51 50 -39 21 12 37 -1 37 -31 0 -35
-96 -67 -129 -43 -19 13 -23 12 -45 -14 -27 -30 -27 -30 -104 18 -20 12 -24
12 -32 0 -5 -9 -5 -22 0 -32 13 -24 3 -29 -57 -29 -37 0 -53 4 -52 13 3 27 -2
37 -20 37 -25 0 -36 -17 -22 -34 16 -19 -12 -25 -98 -18 -59 4 -72 2 -77 -12
-3 -9 -10 -13 -15 -10 -5 3 -7 9 -5 13 3 4 -6 14 -19 21 -18 10 -31 10 -52 2
-15 -5 -61 -10 -102 -11 -41 0 -77 -4 -80 -8 -3 -5 -40 -8 -81 -8 l-75 0 -3
38 c-2 20 -6 37 -9 37 -3 0 -18 -13 -33 -30 -34 -37 -72 -39 -97 -6 -16 21
-20 22 -40 9 -29 -19 -61 -8 -69 23 -9 34 3 88 25 115 l18 22 21 -21 c12 -12
24 -22 25 -22 2 0 12 18 22 40 10 22 23 41 29 41 30 3 51 -5 69 -27 24 -31 28
-30 49 6 22 38 55 39 98 3 l32 -26 24 26 c22 24 32 27 90 27 60 0 67 -2 94
-32 l29 -31 12 26 c23 51 138 60 187 14 l22 -21 16 23 c13 18 43 37 63 40 3 1
20 -9 38 -21z m-1450 -166 c13 -9 14 -15 5 -24 -7 -7 -12 -20 -12 -31 0 -17 1
-17 27 3 l27 21 20 -33 c11 -18 25 -36 31 -40 5 -4 -5 -10 -22 -14 -18 -4 -33
-13 -33 -20 0 -8 -7 -14 -16 -14 -17 0 -57 82 -52 108 2 9 -6 24 -17 33 -18
15 -18 19 -5 44 l14 26 8 -23 c5 -13 16 -29 25 -36z m913 -159 c129 -18 331
-18 402 -1 55 13 121 2 126 -22 4 -21 -90 -80 -126 -80 -16 0 -55 -9 -87 -19
-39 -13 -65 -17 -76 -11 -9 6 -29 6 -47 1 -17 -5 -33 -6 -37 -3 -6 6 -97 11
-212 11 -38 0 -155 53 -190 86 l-25 22 23 17 c30 20 98 20 249 -1z m-745 -13
c3 -5 1 -10 -4 -10 -6 0 -11 5 -11 10 0 6 2 10 4 10 3 0 8 -4 11 -10z m-85
-20 c0 -5 -2 -10 -4 -10 -3 0 -8 5 -11 10 -3 6 -1 10 4 10 6 0 11 -4 11 -10z
m1344 -405 c3 -8 12 -15 20 -15 7 0 16 -6 19 -14 3 -8 18 -20 34 -28 39 -19
38 -52 -2 -56 -40 -5 -53 -17 -48 -46 6 -29 -12 -66 -32 -66 -8 0 -15 -6 -15
-14 0 -20 -17 -29 -51 -28 -16 0 -31 -4 -34 -9 -4 -5 -17 -6 -30 -3 -12 3 -25
1 -29 -4 -3 -6 -22 -6 -48 0 -59 13 -91 11 -104 -7 -14 -18 -149 -24 -179 -8
-11 6 -32 16 -47 22 -19 7 -28 18 -29 33 -1 21 -1 22 -7 3 -9 -28 -37 -26 -38
3 -1 12 -2 26 -3 31 0 5 -17 18 -37 30 -26 16 -35 27 -32 44 2 12 9 22 16 22
7 0 26 15 42 33 21 25 34 32 49 27 10 -3 43 3 73 13 39 14 60 16 81 9 21 -7
33 -5 45 5 12 11 37 14 92 12 41 -2 102 3 135 10 86 19 151 20 159 1z m1400
-1156 c9 -47 7 -77 -5 -85 -21 -12 -30 13 -23 65 7 58 19 66 28 20z m82 -143
c3 -8 1 -23 -5 -33 -9 -16 -10 -16 -11 -1 0 9 -3 23 -6 32 -3 9 -1 16 5 16 7
0 14 -6 17 -14z m-116 -271 c0 -8 -7 -15 -15 -15 -8 0 -15 7 -15 15 0 8 7 15
15 15 8 0 15 -7 15 -15z m52 -228 c-3 -11 -8 -15 -14 -9 -5 5 -6 22 -2 38 6
25 8 26 14 9 4 -11 5 -28 2 -38z m-107 -24 c0 -20 16 -28 25 -13 7 10 9 2 6
-27 -3 -32 -12 -50 -38 -75 -19 -18 -42 -45 -52 -60 -18 -31 -43 -37 -52 -13
-7 17 26 85 55 114 11 11 23 36 27 56 3 20 11 34 18 32 6 -2 11 -9 11 -14z
m85 -7 c0 -3 -4 -8 -10 -11 -5 -3 -10 -1 -10 4 0 6 5 11 10 11 6 0 10 -2 10
-4z m-212 -227 c-7 -21 -19 -32 -39 -36 -15 -3 -30 -12 -33 -20 -5 -12 -9 -13
-21 -3 -12 10 -12 14 0 26 7 8 16 14 18 14 3 0 19 13 37 30 38 35 53 31 38
-11z m-168 -95 c0 -4 -9 -22 -21 -40 -12 -21 -25 -31 -35 -27 -29 11 -2 73 33
73 12 0 23 -3 23 -6z m14 -29 c-4 -8 -8 -15 -10 -15 -2 0 -4 7 -4 15 0 8 4 15
10 15 5 0 7 -7 4 -15z m-104 -75 c13 -9 13 -11 0 -20 -21 -14 -40 -12 -40 3 0
26 16 33 40 17z"/>
<path d="M4985 6390 c3 -5 13 -10 21 -10 8 0 14 5 14 10 0 6 -9 10 -21 10 -11
0 -17 -4 -14 -10z"/>
<path d="M4412 4057 c-14 -16 -6 -27 20 -27 13 0 18 6 16 17 -4 22 -22 27 -36
10z"/>
<path d="M4680 3295 c0 -8 5 -15 10 -15 6 0 10 7 10 15 0 8 -4 15 -10 15 -5 0
-10 -7 -10 -15z"/>
</g>
</svg>
